<svg xmlns="http://www.w3.org/2000/svg" xmlns:xlink="http://www.w3.org/1999/xlink" version="1.1" x="0px" y="0px"
     viewBox="0 0 24 24" enable-background="new 0 0 24 24" xml:space="preserve">
    <g fill="darkgray">
        <polygon points="7.414,10 2,10 2,22 15,22 15,11 8.414,11   "></polygon>
        <polygon points="15.414,3 14.414,2 9,2 9,10 16,10 16,14 22,14 22,3   "></polygon>
        <path d="M4.586,6.587l1.121,1.12L8.414,5L5.707,2.293L4.293,3.707l0.5,0.5C3.179,4.722,2,6.218,2,8h2    C4,7.448,4.224,6.948,4.586,6.587z"></path>
        <path d="M19.414,17.413l-1.121-1.12L15.586,19l2.707,2.707l1.414-1.414l-0.5-0.5C20.821,19.278,22,17.782,22,16h-2    C20,16.552,19.776,17.052,19.414,17.413z"></path>
    </g>
</svg>
